<?xml version="1.0" encoding="utf-8"?>
<!-- Generator: Adobe Illustrator 24.0.2, SVG Export Plug-In . SVG Version: 6.00 Build 0)  -->
<svg version="1.1" xmlns="http://www.w3.org/2000/svg" xmlns:xlink="http://www.w3.org/1999/xlink" x="0px" y="0px"
	 viewBox="0 0 24 24" style="enable-background:new 0 0 24 24;" xml:space="preserve">
<style type="text/css">
	.st0{fill:none;}
	.st1{fill:#55bcb9;}
</style>
<g id="bounding_box">
	<rect y="0" class="st0" width="24" height="24"/>
</g>
<g id="design">
	<path class="st1" d="M21.76,4.2c-0.03-0.03-0.06-0.05-0.09-0.07c-0.04-0.03-0.09-0.05-0.13-0.07c0,0-0.01-0.01-0.02-0.01
		C21.44,4.02,21.35,4,21.26,4H2.74C2.65,4,2.56,4.02,2.48,4.05c-0.01,0-0.02,0.01-0.02,0.01C2.42,4.08,2.37,4.1,2.33,4.13
		C2.3,4.15,2.27,4.17,2.24,4.2C2.08,4.35,2,4.55,2,4.75v14.5C2,19.66,2.34,20,2.75,20h18.5c0.41,0,0.75-0.34,0.75-0.75V4.75
		C22,4.55,21.92,4.35,21.76,4.2z M19.52,5.5l-5.89,6.29c-0.86,0.92-2.4,0.92-3.26,0L4.48,5.5H19.52z M20.5,18.5h-17V6.65l5.78,6.17
		C9.99,13.58,10.96,14,12,14s2.01-0.42,2.72-1.18l5.78-6.17V18.5z"/>
</g>
</svg>
