<?xml version="1.0" encoding="utf-8"?>
<!-- Generator: Adobe Illustrator 24.0.2, SVG Export Plug-In . SVG Version: 6.00 Build 0)  -->
<svg version="1.1" xmlns="http://www.w3.org/2000/svg" xmlns:xlink="http://www.w3.org/1999/xlink" x="0px" y="0px"
	 viewBox="0 0 24 24" style="enable-background:new 0 0 24 24;" xml:space="preserve">
<style type="text/css">
	.st0{fill:none;}
	.st1{fill:#55bcb9;}
</style>
<g id="bounding_box">
	<rect class="st0" width="24" height="24"/>
</g>
<g id="design">
	<g>
		<path class="st1" d="M12,22c-0.22,0-0.43-0.1-0.57-0.27l-5.59-6.64C5,14.08,4.42,12.88,4.17,11.62C4.06,11.12,4,10.58,4,10
			c0-4.41,3.59-8,8-8s8,3.59,8,8c0,0.58-0.06,1.12-0.18,1.65c-0.24,1.23-0.82,2.43-1.65,3.44l-5.59,6.64C12.43,21.9,12.22,22,12,22z
			 M12,3.5c-3.58,0-6.5,2.92-6.5,6.5c0,0.47,0.05,0.9,0.14,1.31c0.2,1.04,0.67,2,1.35,2.82L12,20.09l5.02-5.96
			c0.68-0.81,1.14-1.78,1.34-2.79c0.1-0.44,0.15-0.87,0.15-1.34C18.5,6.42,15.58,3.5,12,3.5z"/>
		<path class="st1" d="M12,14c-2.21,0-4-1.79-4-4s1.79-4,4-4s4,1.79,4,4S14.21,14,12,14z M12,7.5c-1.38,0-2.5,1.12-2.5,2.5
			s1.12,2.5,2.5,2.5s2.5-1.12,2.5-2.5S13.38,7.5,12,7.5z"/>
	</g>
</g>
</svg>
